<svg width="24" height="24" viewBox="0 0 1000 1000" fill="none" xmlns="http://www.w3.org/2000/svg">
  <path d="M500 0L294.118 294.118L0 0L294.118 705.882L500 1000L705.882 705.882L1000 0L705.882 294.118L500 0Z" fill="#E17726"/>
  <path d="M500 0L294.118 294.118L0 0L294.118 705.882L500 1000L705.882 705.882L1000 0L705.882 294.118L500 0Z" fill="#E27625"/>
  <path d="M500 0L294.118 294.118L0 0L294.118 705.882L500 1000L705.882 705.882L1000 0L705.882 294.118L500 0Z" fill="#D5BFB2"/>
  <path d="M500 0L294.118 294.118L0 0L294.118 705.882L500 1000L705.882 705.882L1000 0L705.882 294.118L500 0Z" fill="#233447"/>
  <path d="M500 0L294.118 294.118L0 0L294.118 705.882L500 1000L705.882 705.882L1000 0L705.882 294.118L500 0Z" fill="#CC6228"/>
  <path d="M500 0L294.118 294.118L0 0L294.118 705.882L500 1000L705.882 705.882L1000 0L705.882 294.118L500 0Z" fill="#E27525"/>
  <path d="M500 0L294.118 294.118L0 0L294.118 705.882L500 1000L705.882 705.882L1000 0L705.882 294.118L500 0Z" fill="#F5841F"/>
  <path d="M500 0L294.118 294.118L0 0L294.118 705.882L500 1000L705.882 705.882L1000 0L705.882 294.118L500 0Z" fill="#C0AC9D"/>
</svg>